<svg xmlns="http://www.w3.org/2000/svg" width="447" height="368" viewBox="0 0 447 368">
  <defs>
    <style>
      .cls-1 {
        fill: #f4ff42;
      }

      .cls-1, .cls-2, .cls-3 {
        fill-rule: evenodd;
      }

      .cls-2 {
        fill: #fff;
      }
    </style>
  </defs>
  <path class="cls-1" d="M199,150s2.424,50.615-44,112c18.75,70.5,66,73,66,73s60.75-5.5,63-74c-43.907-89.6-36-111-36-111H199Z"/>
  <path id="Color_Fill_3" data-name="Color Fill 3" class="cls-2" d="M284,159c66.24,2.089,106.847,49.32,113,110-81.121,8.341-131.778-37.719-138-107,33.407,19.246,67.806,36.78,99,57-12.82-17.555-29.821-30.893-48-43C302.027,170.691,289.385,166.837,284,159Z"/>
  <path id="Color_Fill_2" data-name="Color Fill 2" class="cls-2" d="M157,159l8,1h-2c-23.294,22.74-54.173,30.128-73,58,33.945-13.539,61.855-42.306,98-55-6.039,68.9-57.5,114.2-138,106,6.209-45.307,28.484-84.949,65-100Z"/>
  <path id="Color_Fill_1" data-name="Color Fill 1" class="cls-3" d="M420,288c-32.039,2.009-66.543,3.891-94-5l-30-14c-4.467,43.026-56.36,97.626-107,67-25.329-15.319-30.037-37.891-45-64-30.713,18.281-71.852,18.343-117,16-0.464-86.8,50.908-143.152,132-150-3.785-32.767,10.785-57.537,35-65-3.547-18.269-19.922-41.925-42-42l-10,6q-1,4.5-2,9c2.792,3.834,2.034,4.872,8,6l6-9,3,2q0.5,3.5,1,7c-2.675,3.7-3.56,5.915-8,8H139c-6.656-4.761-9.343-10-9-22,4.485-9.4,8.743-14.128,20-17,37.163-9.482,41.937,42.379,56,48,9.795-3.067,21.834-1.221,32,0,4.585-20.826,20.593-44.16,41-49,27.571-6.539,36.521,21.57,26,38l-5,3c-7.919.155-10.588-1.273-15-4l-2-3q0.5-5,1-10l2-1,6,9h4l2-3c1.586-2.369,1.813-3.621,2-8-1.622-3.2-1.849-4.189-5-6-3.379-3.472-6.695-4.19-14-4-17,8.1-29.08,23.058-35,42,24.084,5.019,41.319,35.458,35,65C367.586,137.608,420.487,202.034,420,288ZM158,159l-40,9c-38.456,15.861-61.305,53.573-68,101,80,11.235,131.742-39.767,138-106h-1c-33.519,17.16-65.969,35.171-96,55,13.023-29.738,52.13-37.679,74-59h-7Zm52,1q-3,15-6,30h39l-6-29Zm72-1c24.951,19.057,57.267,30.986,74,58l-37-24-60-31c6.194,66.865,57.464,118.143,138,107v-3C379.142,205.688,357.527,160.683,282,159Zm-72,54c-5.151,1.813-12.569.532-16,4-8.79,11.747-13.3,26.221-25,35q0.5,1,1,2c23.2,6.91,89.718,13.08,105-4l-23-34C241.8,211.4,223.949,212.823,210,213Zm-28,69c-2.3,2-3.345,2.088-5,5-2.566,7,2.88,10.822,6,15,30.306,40.582,93.438,6.132,78-19l-35,2Z"/>
</svg>
