<svg xmlns="http://www.w3.org/2000/svg" width="1920" height="1920" viewBox="0 0 1920 1920">
  <defs>
    <style>
      .cls-1, .cls-2 {
        fill-rule: evenodd;
      }

      .cls-2, .cls-3 {
        stroke: red;
        stroke-width: 100px;
      }

      .cls-3 {
        fill: none;
      }
    </style>
  </defs>
  <path id="Color_Fill_1" data-name="Color Fill 1" class="cls-1" d="M697.528,322c36.625,0.2,43.262,35.618,51.726,64.256,15.725,53.2,13.758,122.182,19.189,182.754,1.749,19.506,1.13,48.519-2.5,70.1-2.926,17.379-20.78,86.019-15.852,93.463,7.365,11.124,32.608,14.766,44.218,21.7,26.98,16.107,51.576,38.022,67.578,65.091,7.985,13.508,13.78,30.395,17.52,47.566q1.668,14.6,3.337,29.207c2.341,5.9,8.4,11.71,14.183,14.187,36.615,15.672,80.688,19.892,125.146,27.538l47.55,2.5,53.4,0.835c24.8-3.766,64.83-9.292,91.77-5.007,42.01,6.684,75,14.846,107.62,29.207,94.55,41.625,175.37,135.125,216.08,231.155,9.53,22.46,16.11,47.62,21.7,73.44,2.49,11.5.96,26.11,5.84,35.04,19.04,3.94,40.69-12.75,57.56-.83,5.22,18.95-5.6,46.54-9.18,65.93-10.32,56.04-2.36,94.4-54.22,110.15-14.1,4.28-36.03-.36-50.9,5.84-6.97,2.91-9.64,11.23-14.18,16.69-6.24,7.51-19.53,13.76-29.2,17.52-41.5,16.15-111.73,9.18-166.86,9.18H1168.9c-14.82.01-40.96,3.46-50.05-3.33-27.22-20.34,18.46-60.04,16.68-70.94-3.06-8.18-69.38-18.58-82.59-22.53-48.48-14.48-96.065-30.89-132.656-57.58q-15.433-14.6-30.869-29.21h-3.337c-0.556.56-1.112,1.12-1.669,1.67-0.791,54.4-23.248,134.59-54.229,158.56-12.479,9.65-30.977,14.73-49.223,18.36-37.524,7.46-112.9,7.33-127.646-17.53-25.041-42.2,21.823-56.11,52.56-62.58q15.015-2.1,30.034-4.18c7.805-4.83,5.84-20.84,5.84-33.38V1306.7c-4.1-23.49-27.08-31.2-42.548-43.39-28.923-22.8-52.66-55.04-71.75-87.62-15.161-25.88-24.047-57.13-31.7-90.13-4.064-17.52-1.309-43.62-10.011-56.74-43.258-14.14-96.612-16.63-121.807-48.4-11.543-14.556-27.487-52.652-20.023-75.939,5.943-18.541,22.556-28.636,32.538-43.394,25.062-37.053,39.713-76.165,75.92-101.808,16.41-11.622,38.049-14.33,56.732-25.035q0.834-2.92,1.669-5.841c-4.31-10.5-13-17.946-19.189-26.7l-31.7-50.9c-30.2-51.279-54.413-111.446-76.755-168.568-10.871-27.794-25.718-87.218,1.669-107.65,31.687-23.64,62.177,15.632,75.086,33.38,29.309,40.3,53.591,87.383,74.252,136.023l27.531,77.608c-11.5-78.409-39.618-226.893,8.343-284.563C676.815,328.822,687.178,326.944,697.528,322Z"/>
  <path id="Line_1" data-name="Line 1" class="cls-2" d="M1590.65,390.645l0.7,0.71-1149,1139.995-0.7-.7Z"/>
  <circle class="cls-3" cx="1016" cy="1004" r="840"/>
</svg>
