<svg xmlns="http://www.w3.org/2000/svg" width="1920" height="1920" viewBox="0 0 1920 1920">
  <defs>
    <style>
      .cls-1 {
        fill: #0a0a0a;
      }

      .cls-1, .cls-3 {
        fill-rule: evenodd;
      }

      .cls-2, .cls-3 {
        fill: none;
        stroke: red;
        stroke-width: 100px;
      }
    </style>
  </defs>
  <path id="Color_Fill_1" data-name="Color Fill 1" class="cls-1" d="M534.63,303.964c10.906,9.788,9.7,29.48,15.558,44.469,15.879,40.6,55.808,129.63,117.795,113.4-3.474-32.13-25.033-46.51-17.78-86.715h4.445q2.223,17.786,4.445,35.575l31.116,33.352c14.282,22.823,7.6,66.472,31.116,80.044l8.89,2.224,11.113-17.788c-2.474,40.43-2.554,89.17,24.448,111.172l8.89,2.224c2.937-12.27,5.892-9.059,11.113-17.788,11.742-19.624.225-59.017-8.891-73.374l-22.225-4.446c13.467-23.763-3.972-52.624,2.222-86.715q6.668-24.454,13.336-48.916h4.445c-5.7,42.863-16.447,113.166,26.67,124.513v-4.447q4.446-23.343,8.891-46.692h4.445c-2.636,17.863-3.717,102.808,0,106.726l11.113-6.671v2.224c-11.923,20.906-19.98,38.207-20,73.373l28.893,31.129q3.333,31.125,6.667,62.256Q855.787,772,870.236,810.91l-4.445,4.447c-53.113,9.428-60.237-18.068-93.348-37.8-8.647,2.234-6.675.863-11.112,6.67C742.142,815.77,775.686,858.172,788,875.39,827.06,930,974.313,943.874,1072.49,926.529c36.62-6.47,78.12-28.145,124.46-15.564,67.67,18.371,77.44,102.645,157.8,104.505-15.85,34.58-47.64,41.32-86.68,28.9,6.2,45.35,5.81,120.22,26.67,155.64,16.05,27.25,54.63,43.67,66.68,71.15,11.62,26.53-1.89,73.45,4.44,106.73q12.225,63.36,24.45,126.74c4.94,15.18,14.85,21.06,17.78,40.02-15.72,18.55-32.29,82.59-48.89,91.16-15.86,4.52-27.25,2.64-46.68,2.22v-6.67q13.335-22.23,26.67-44.47c12.24-40.22,1.43-181.82-17.78-213.45-22.89-37.69-66.26-57.85-93.34-91.16l-48.9-60.03c11.99,24.6,56.15,78.08,44.45,108.95q-24.45,37.785-48.89,75.59c-22.9,51.1-29.26,110.53-42.23,173.43-19.95,8.35-20.47,25.9-31.12,42.25q-26.67-2.22-53.34-4.45c0.74-2.22,1.48-4.45,2.22-6.67q23.34-44.46,46.68-88.94,17.775-66.69,35.56-133.4c5.83-19.59,24.97-45.09,17.78-73.38-2.51-9.86-107.79-128.71-120.02-137.85-63.483.46-111.167,28.94-168.915,8.89-49.314,59.52-20,303.69-37.783,400.22H808c-1.327,14.01-3.654,28.63-8.89,37.8q-27.779,3.33-55.564,6.67v-8.89c57.46-95.73,37.627-323.42,13.335-440.24q-3.333-1.125-6.667-2.23c-29.393,10.02-95.534,17.54-111.128,42.25,23.934,79.85,53.57,102.11,120.018,137.85l-2.223,35.58c-16.43,28.87-54.98-6.18-66.676-17.79-30.314-30.1-117.55-133.24-104.46-184.55,38.695-28.43,66.711-55.33,97.792-91.16-28.591-38.15-64.092-66-80.012-117.841-23.853-77.675,6.6-174.484,35.561-224.568,13.472-23.295,33.884-41.165,35.561-75.6l-42.228-66.7v-2.224c32.51,3.915,54.319,33.709,80.011,28.9-1.9-27.635-15.631-35.592,0-48.916v-2.223c-1.223-43.709-34.763-70.078-57.786-93.385l-42.228,8.894c-3.81-1.635-.982-26.989-6.668-35.575C573.343,424,537.181,386.663,534.63,303.964Z"/>
  <circle class="cls-2" cx="960.392" cy="960.419" r="759.298"/>
  <path id="Line_1" data-name="Line 1" class="cls-3" d="M407.623,1460.81l-1.426-1.49L1470.29,440.854l1.43,1.49Z"/>
</svg>
